<svg width="48" height="48" viewBox="0 0 48 48" fill="none" xmlns="http://www.w3.org/2000/svg">
<g filter="url(#filter0_dd_5_168)">
<path d="M5 20C5 9.50659 13.5066 1 24 1C34.4934 1 43 9.50659 43 20C43 30.4934 34.4934 39 24 39C13.5066 39 5 30.4934 5 20Z" fill="#262626" stroke="#303030" stroke-width="2"/>
<mask id="mask0_5_168" style="mask-type:luminance" maskUnits="userSpaceOnUse" x="20" y="11" width="9" height="18">
<path fill-rule="evenodd" clip-rule="evenodd" d="M25.7189 28.4001V20.7366H28.1983L28.5667 17.7517H25.7189V15.8439C25.7189 14.9809 25.9499 14.3904 27.1428 14.3904H28.6667V11.7169C28.4044 11.678 27.4988 11.6001 26.4496 11.6001C24.2512 11.6001 22.7523 12.9952 22.7523 15.5519V17.7582H20.2667V20.7431H22.7523V28.4001H25.7189Z" fill="white"/>
</mask>
<g mask="url(#mask0_5_168)">
<rect x="11.8666" y="7.8667" width="24.2667" height="24.2667" fill="#737373"/>
</g>
</g>
<defs>
<filter id="filter0_dd_5_168" x="0" y="0" width="48" height="48" filterUnits="userSpaceOnUse" color-interpolation-filters="sRGB">
<feFlood flood-opacity="0" result="BackgroundImageFix"/>
<feColorMatrix in="SourceAlpha" type="matrix" values="0 0 0 0 0 0 0 0 0 0 0 0 0 0 0 0 0 0 127 0" result="hardAlpha"/>
<feOffset dy="4"/>
<feGaussianBlur stdDeviation="2"/>
<feComposite in2="hardAlpha" operator="out"/>
<feColorMatrix type="matrix" values="0 0 0 0 0 0 0 0 0 0 0 0 0 0 0 0 0 0 0.25 0"/>
<feBlend mode="normal" in2="BackgroundImageFix" result="effect1_dropShadow_5_168"/>
<feColorMatrix in="SourceAlpha" type="matrix" values="0 0 0 0 0 0 0 0 0 0 0 0 0 0 0 0 0 0 127 0" result="hardAlpha"/>
<feOffset dy="4"/>
<feGaussianBlur stdDeviation="2"/>
<feComposite in2="hardAlpha" operator="out"/>
<feColorMatrix type="matrix" values="0 0 0 0 0 0 0 0 0 0 0 0 0 0 0 0 0 0 0.25 0"/>
<feBlend mode="normal" in2="effect1_dropShadow_5_168" result="effect2_dropShadow_5_168"/>
<feBlend mode="normal" in="SourceGraphic" in2="effect2_dropShadow_5_168" result="shape"/>
</filter>
</defs>
</svg>
